<svg xmlns="http://www.w3.org/2000/svg" width="120" height="24" viewBox="0 0 120 24" fill="none">
  <path fill-rule="evenodd" clip-rule="evenodd" d="M108 0C104.741 0 104.333 0.014 103.053 0.072C98.695 0.272 96.273 2.69 96.073 7.052C96.014 8.333 96 8.741 96 12C96 15.259 96.014 15.668 96.072 16.948C96.272 21.306 98.69 23.728 103.052 23.928C104.333 23.986 104.741 24 108 24C111.259 24 111.668 23.986 112.948 23.928C117.302 23.728 119.73 21.31 119.927 16.948C119.986 15.668 120 15.259 120 12C120 8.741 119.986 8.333 119.928 7.053C119.732 2.699 117.311 0.273 112.949 0.073C111.668 0.014 111.259 0 108 0ZM108 2.163C111.204 2.163 111.584 2.175 112.85 2.233C116.102 2.381 117.621 3.924 117.769 7.152C117.827 8.417 117.838 8.797 117.838 12.001C117.838 15.206 117.826 15.585 117.769 16.85C117.62 20.075 116.105 21.621 112.85 21.769C111.584 21.827 111.206 21.839 108 21.839C104.796 21.839 104.416 21.827 103.151 21.769C99.891 21.62 98.38 20.07 98.232 16.849C98.174 15.584 98.162 15.205 98.162 12C98.162 8.796 98.175 8.417 98.232 7.151C98.381 3.924 99.896 2.38 103.151 2.232C104.417 2.175 104.796 2.163 108 2.163ZM101.838 12C101.838 8.597 104.597 5.838 108 5.838C111.403 5.838 114.162 8.597 114.162 12C114.162 15.404 111.403 18.163 108 18.163C104.597 18.163 101.838 15.403 101.838 12ZM108 16C105.791 16 104 14.21 104 12C104 9.791 105.791 8 108 8C110.209 8 112 9.791 112 12C112 14.21 110.209 16 108 16ZM112.965 5.595C112.965 4.8 113.61 4.155 114.406 4.155C115.201 4.155 115.845 4.8 115.845 5.595C115.845 6.39 115.201 7.035 114.406 7.035C113.61 7.035 112.965 6.39 112.965 5.595Z" fill="#FCB72B"/>
</svg>